<svg width="69" height="63" viewBox="0 0 69 63" fill="none" xmlns="http://www.w3.org/2000/svg">
<g opacity="0.2">
<path d="M61.3854 53.8131C59.1475 57.6042 56.9081 60.4897 53.4125 57.3476C51.6133 55.7311 52.0337 52.8001 51.7357 51.008C51.3765 48.8586 50.5685 47.8762 51.7726 46.1634C52.9456 44.4916 55.7485 45.0358 58.066 45.0264C60.5247 45.0154 62.2445 44.3367 64.0841 46.5018C65.7209 48.4273 65.1829 50.2804 61.3854 53.8131Z" fill="#0D96A0"/>
<path d="M42.4895 43.33C44.4309 41.3651 52.3031 45.5876 48.1299 48.7383C45.0235 51.0802 40.5587 45.3982 42.4895 43.33Z" fill="#0D96A0"/>
<path d="M44.0617 51.1382C45.8829 49.0648 53.9185 52.9007 49.9515 56.284C46.9959 58.7984 41.9782 53.1891 44.0617 51.1382Z" fill="#0D96A0"/>
<path d="M46.0064 38.8071C45.0238 41.4206 51.9078 47.1857 53.0635 41.9958C53.9243 38.1313 46.7685 36.0571 46.0064 38.8071Z" fill="#0D96A0"/>
<path d="M54.9207 37.6777C53.0158 39.6766 56.9616 46.4802 60.6915 42.9501C63.5 40.2901 56.6467 35.5468 54.9207 37.6777Z" fill="#0D96A0"/>
<path d="M23.8952 22.8814C21.6573 26.6725 19.4179 29.5579 15.9222 26.4159C14.1231 24.7994 14.5435 21.8684 14.2455 20.0763C13.8862 17.9269 13.0783 16.9445 14.2824 15.2317C15.4553 13.5599 18.2582 14.1041 20.5758 14.0947C23.0345 14.0837 24.7543 13.405 26.5938 15.5701C28.2307 17.4956 27.6927 19.3487 23.8952 22.8814Z" fill="#0D96A0"/>
<path d="M4.99924 12.3983C6.94066 10.4334 14.8129 14.6559 10.6397 17.8066C7.53325 20.1485 3.06851 14.4665 4.99924 12.3983Z" fill="#0D96A0"/>
<path d="M6.57143 20.2065C8.39267 18.1331 16.4283 21.969 12.4613 25.3523C9.50564 27.8666 4.48796 22.2574 6.57143 20.2065Z" fill="#0D96A0"/>
<path d="M8.51621 7.87541C7.53361 10.4889 14.4176 16.254 15.5732 11.0641C16.434 7.19959 9.27827 5.12537 8.51621 7.87541Z" fill="#0D96A0"/>
<path d="M17.4304 6.74602C15.5255 8.74485 19.4713 15.5485 23.2012 12.0184C26.0098 9.35844 19.1565 4.61509 17.4304 6.74602Z" fill="#0D96A0"/>
<path d="M47.8051 23.4722C43.7076 25.0818 40.1664 25.9768 39.3462 21.3487C38.9237 18.9672 41.0595 16.9164 41.928 15.3208C42.9682 13.4059 42.9363 12.1343 44.9397 11.5259C46.8933 10.9306 48.7669 13.0851 50.599 14.5045C52.5433 16.0096 54.3163 16.5336 54.4329 19.3723C54.5374 21.8973 52.9725 23.0263 47.8051 23.4722Z" fill="#0D96A0"/>
<path d="M39.3689 3.57787C42.1085 3.22473 45.7123 11.3988 40.484 11.3123C36.5943 11.2452 36.5742 4.01899 39.3689 3.57787Z" fill="#0D96A0"/>
<path d="M35.8007 10.6988C38.5124 10.1862 42.4829 18.1562 37.2739 18.3799C33.3968 18.5416 32.8963 11.0322 35.8007 10.6988Z" fill="#0D96A0"/>
<path d="M44.9248 2.17901C42.5415 3.63349 44.4168 12.4146 48.5227 9.03645C51.5803 6.52116 47.2185 0.481127 44.9248 2.17901Z" fill="#0D96A0"/>
<path d="M52.6449 6.77725C49.9132 7.17958 48.8338 14.9702 53.9463 14.4848C57.7971 14.1179 55.3169 6.16071 52.6449 6.77725Z" fill="#0D96A0"/>
</g>
</svg>
